<svg xmlns="http://www.w3.org/2000/svg" xmlns:xlink="http://www.w3.org/1999/xlink" viewBox="0 0 48 48"><linearGradient id="~U9LamypWy3Pwk60v2~~ea" x1="21.922" x2="24.676" y1="8.727" y2="24.369" gradientUnits="userSpaceOnUse"><stop offset="0" stop-color="#0078d3"/><stop offset="1" stop-color="#0858a1"/></linearGradient><path fill="url(#~U9LamypWy3Pwk60v2~~ea)" d="M42,34.996H6V16.037c0-0.653,0.318-1.264,0.853-1.638l8.367-5.857c0.494-0.346,1.117-0.45,1.696-0.285l12.195,3.484c0.564,0.161,1.171,0.067,1.659-0.259l9.422-6.281C40.964,4.686,42,5.24,42,6.17V34.996z"/><path fill="#50e6ff" d="M40,42H8c-1.105,0-2-0.895-2-2V29.961c0-0.608,0.276-1.182,0.751-1.562l8.574-6.859c0.431-0.345,0.986-0.496,1.532-0.418l12.323,1.76c0.525,0.075,1.058-0.062,1.483-0.38L40.4,15.2c0.659-0.494,1.6-0.024,1.6,0.8v24C42,41.105,41.105,42,40,42z"/></svg>