<svg xmlns="http://www.w3.org/2000/svg" xmlns:xlink="http://www.w3.org/1999/xlink" viewBox="0 0 48 48"><path d="M13.476562 4.9785156 A 1.50015 1.50015 0 0 0 13.257812 5L7.5 5C4.4802259 5 2 7.4802259 2 10.5L2 28.5C2 31.519774 4.4802259 34 7.5 34L18 34L18 42L16.5 42 A 1.50015 1.50015 0 1 0 16.5 45L31.5 45 A 1.50015 1.50015 0 1 0 31.5 42L30 42L30 34L40.5 34C43.519774 34 46 31.519774 46 28.5L46 10.5C46 7.4802259 43.519774 5 40.5 5L38 5L38 8L40.5 8C41.898226 8 43 9.1017741 43 10.5L43 28.5C43 29.898226 41.898226 31 40.5 31L7.5 31C6.1017741 31 5 29.898226 5 28.5L5 10.5C5 9.1017741 6.1017741 8 7.5 8L12 8L12 9.5 A 1.50015 1.50015 0 1 0 15 9.5L15 6.5L15 5L13.746094 5 A 1.50015 1.50015 0 0 0 13.476562 4.9785156 z M 20.476562 4.9785156 A 1.50015 1.50015 0 0 0 20.257812 5L17 5L17 8L19 8L19 9.5 A 1.50015 1.50015 0 1 0 22 9.5L22 6.5L22 5L20.746094 5 A 1.50015 1.50015 0 0 0 20.476562 4.9785156 z M 27.476562 4.9785156 A 1.50015 1.50015 0 0 0 27.257812 5L24 5L24 8L26 8L26 9.5 A 1.50015 1.50015 0 1 0 29 9.5L29 6.5L29 5L27.746094 5 A 1.50015 1.50015 0 0 0 27.476562 4.9785156 z M 34.476562 4.9785156 A 1.50015 1.50015 0 0 0 34.257812 5L31 5L31 8L33 8L33 9.5 A 1.50015 1.50015 0 1 0 36 9.5L36 6.5L36 5L34.746094 5 A 1.50015 1.50015 0 0 0 34.476562 4.9785156 z M 21 34L27 34L27 42L21 42L21 34 z"/></svg>