<svg xmlns="http://www.w3.org/2000/svg" xmlns:xlink="http://www.w3.org/1999/xlink" viewBox="0 0 48 48"><path d="M24 5C13.524351 5 5 13.524358 5 24C5 34.475642 13.524351 43 24 43C34.475649 43 43 34.475642 43 24C43 13.524358 34.475649 5 24 5 z M 24 8C32.85433 8 40 15.145676 40 24C40 32.854324 32.85433 40 24 40C15.14567 40 8 32.854324 8 24C8 15.145676 15.14567 8 24 8 z M 3.0058594 14.630859 A 1.50015 1.50015 0 0 0 2.8554688 14.632812 A 1.50015 1.50015 0 0 0 1.5292969 15.626953C0.55967643 18.228555 -1.4802974e-16 21.04585 0 24C0 26.95415 0.55967644 29.771445 1.5292969 32.373047 A 1.50015 1.50015 0 1 0 4.3398438 31.324219C3.4854642 29.031821 3 26.57585 3 24C3 21.42415 3.4854642 18.968179 4.3398438 16.675781 A 1.50015 1.50015 0 0 0 3.0058594 14.630859 z M 45.099609 14.630859 A 1.50015 1.50015 0 0 0 43.660156 16.675781C44.514536 18.968179 45 21.42415 45 24C45 26.57585 44.514536 29.031821 43.660156 31.324219 A 1.50015 1.50015 0 1 0 46.470703 32.373047C47.440324 29.771445 48 26.95415 48 24C48 21.04585 47.440324 18.228555 46.470703 15.626953 A 1.50015 1.50015 0 0 0 45.099609 14.630859 z M 23.976562 14.978516 A 1.50015 1.50015 0 0 0 22.5 16.5L22.5 25.5 A 1.50015 1.50015 0 1 0 25.5 25.5L25.5 16.5 A 1.50015 1.50015 0 0 0 23.976562 14.978516 z M 24 29 A 2 2 0 0 0 24 33 A 2 2 0 0 0 24 29 z"/></svg>