<svg xmlns="http://www.w3.org/2000/svg" xmlns:xlink="http://www.w3.org/1999/xlink" viewBox="0 0 48 48"><path d="M24 5C21.253566 5 18.994141 7.2594259 18.994141 10.005859L18.994141 39.994141L16.009766 39.994141C16.010257 36.99695 16.015625 20.590912 16.015625 19.005859C16.015625 16.259425 13.7562 14 11.009766 14C8.2633313 14 6.0058594 16.259425 6.0058594 19.005859C6.0058594 20.586113 6.000488 36.992586 6 39.994141L5.5 39.994141 A 1.50015 1.50015 0 1 0 5.5 42.994141L42.5 42.994141 A 1.50015 1.50015 0 1 0 42.5 39.994141L42 39.994141L42 27C42 24.253566 39.740575 21.994141 36.994141 21.994141C34.247707 21.994141 31.990234 24.253566 31.990234 27L31.990234 39.994141L29.005859 39.994141L29.005859 10.005859C29.005859 7.2594259 26.746434 5 24 5 z M 24 8C25.125566 8 26.005859 8.8802937 26.005859 10.005859L26.005859 39.994141L21.994141 39.994141L21.994141 10.005859C21.994141 8.8802937 22.874434 8 24 8 z M 11.009766 17C12.135332 17 13.015625 17.880293 13.015625 19.005859C13.015625 20.585157 13.010257 36.99172 13.009766 39.994141L9 39.994141C9.000488 36.997818 9.0058594 20.591864 9.0058594 19.005859C9.0058594 17.880293 9.8841991 17 11.009766 17 z M 36.994141 24.994141C38.119707 24.994141 39 25.874434 39 27L39 39.994141L34.990234 39.994141L34.990234 27C34.990234 25.874434 35.868575 24.994141 36.994141 24.994141 z"/></svg>