<svg xmlns="http://www.w3.org/2000/svg" xmlns:xlink="http://www.w3.org/1999/xlink" viewBox="0 0 48 48"><path d="M21.755859 7C16.749726 7 13.465042 8.9656146 11.568359 10.96875C9.6716767 12.971885 9.0585937 15.087891 9.0585938 15.087891 A 1.50015 1.50015 0 1 0 11.941406 15.912109C11.941406 15.912109 12.328777 14.528115 13.746094 13.03125C15.163411 11.534385 17.505992 10 21.755859 10L23.005859 10C21.855645 14.662245 20.830741 18.66555 19.921875 22L17.5 22 A 1.50015 1.50015 0 1 0 17.5 25L19.083984 25C17.680253 29.903374 16.530449 33.247053 15.517578 35.347656C14.588589 37.274295 13.822414 38.115172 13.21875 38.501953C12.615086 38.888734 11.97947 39 10.767578 39C10.001412 39 8.6822633 38.668636 7.6523438 38.294922C6.6224242 37.921208 5.8886719 37.556641 5.8886719 37.556641 A 2.0002433 2.0002433 0 1 0 4.1113281 41.140625C4.1113281 41.140625 5.0439821 41.602901 6.2890625 42.054688C7.5341429 42.506473 9.0977446 43 10.767578 43C12.262686 43 13.889618 42.824063 15.376953 41.871094C16.864289 40.918125 18.018629 39.366346 19.119141 37.083984C20.403597 34.420138 21.699747 30.582961 23.259766 25L32.5 25 A 1.50015 1.50015 0 1 0 32.5 22L24.078125 22C24.98209 18.617831 25.968879 14.733331 27.105469 10.105469 A 2.0002 2.0002 0 0 0 27.126953 10L41.5 10 A 1.50015 1.50015 0 1 0 41.5 7L21.755859 7 z"/></svg>