<svg xmlns="http://www.w3.org/2000/svg" xmlns:xlink="http://www.w3.org/1999/xlink" viewBox="0 0 48 48"><path d="M12.5 6C9.4802259 6 7 8.4802259 7 11.5L7 14.5C7 16.070005 7.6740852 17.490503 8.7421875 18.496094C7.6730004 19.500057 7 20.920973 7 22.5L7 25.5C7 27.077 7.6703281 28.496 8.7363281 29.5C7.6703281 30.504 7 31.923 7 33.5L7 36.5C7 39.533 9.468 42 12.5 42L24.056641 42C23.462641 41.073 22.979766 40.068 22.634766 39L12.5 39C11.121 39 10 37.878 10 36.5L10 33.5C10 32.122 11.121 31 12.5 31L22.634766 31C22.979766 29.932 23.463594 28.927 24.058594 28L12.5 28C11.121 28 10 26.878 10 25.5L10 22.5C10 21.122 11.121 20 12.5 20L35.5 20C36.83 20 37.910328 21.046422 37.986328 22.357422C39.047328 22.607422 40.058 22.982609 41 23.474609L41 22.5C41 20.920973 40.327 19.500057 39.257812 18.496094C40.325915 17.490503 41 16.070005 41 14.5L41 11.5C41 8.4802259 38.519774 6 35.5 6L12.5 6 z M 12.5 9L35.5 9C36.898226 9 38 10.101774 38 11.5L38 14.5C38 15.898226 36.898226 17 35.5 17L12.5 17C11.101774 17 10 15.898226 10 14.5L10 11.5C10 10.101774 11.101774 9 12.5 9 z M 35 24C28.925 24 24 28.925 24 35C24 41.075 28.925 46 35 46C41.075 46 46 41.075 46 35C46 28.925 41.075 24 35 24 z M 35 27C35.553 27 36 27.448 36 28L36 38.585938L39.292969 35.292969C39.683969 34.901969 40.316031 34.901969 40.707031 35.292969C41.098031 35.683969 41.098031 36.316031 40.707031 36.707031L35.707031 41.707031C35.512031 41.902031 35.256 42 35 42C34.744 42 34.487969 41.902031 34.292969 41.707031L29.292969 36.707031C28.901969 36.316031 28.901969 35.683969 29.292969 35.292969C29.683969 34.901969 30.316031 34.901969 30.707031 35.292969L34 38.585938L34 28C34 27.448 34.447 27 35 27 z"/></svg>