<svg xmlns="http://www.w3.org/2000/svg" xmlns:xlink="http://www.w3.org/1999/xlink" viewBox="0 0 48 48"><path d="M28.480469 4.0097656C27.069723 4.0097656 25.657512 4.5436602 24.589844 5.6113281L5.6113281 24.589844C3.4759922 26.72518 3.4759922 30.233805 5.6113281 32.369141L15.632812 42.390625C16.526865 43.284677 17.673912 43.713991 18.847656 43.859375 A 1.50015 1.50015 0 0 0 19.5 44L37.5 44 A 1.50015 1.50015 0 1 0 37.5 41L24.800781 41L42.390625 23.410156C44.525411 21.274004 44.525238 17.766012 42.388672 15.630859L32.369141 5.6113281C31.301473 4.5436602 29.891215 4.0097656 28.480469 4.0097656 z M 28.480469 6.9902344C29.117223 6.9902344 29.753715 7.2380898 30.248047 7.7324219L40.267578 17.751953 A 1.50015 1.50015 0 0 0 40.267578 17.753906C41.257059 18.742754 41.256792 20.299216 40.267578 21.289062L26.339844 35.21875L12.78125 21.660156L26.710938 7.7324219C27.205269 7.2380898 27.843715 6.9902344 28.480469 6.9902344 z M 10.660156 23.78125L24.21875 37.339844L21.289062 40.267578C20.801278 40.755363 20.173218 40.99354 19.544922 41L19.5 41 A 1.50015 1.50015 0 0 0 19.498047 41C18.869751 40.9935 18.241691 40.755363 17.753906 40.267578L7.7324219 30.248047C6.7437578 29.259383 6.7437578 27.699601 7.7324219 26.710938L10.660156 23.78125 z"/></svg>