<svg xmlns="http://www.w3.org/2000/svg" xmlns:xlink="http://www.w3.org/1999/xlink" viewBox="0 0 48 48"><path d="M12.5 4C10.032499 4 8 6.0324991 8 8.5L8 22.050781C6.8698775 22.287658 6 23.307501 6 24.5L6 35.5C6 36.692499 6.8698775 37.712342 8 37.949219L8 39.5C8 41.967501 10.032499 44 12.5 44L35.5 44C37.967501 44 40 41.967501 40 39.5L40 37.949219C41.130122 37.712342 42 36.692499 42 35.5L42 24.5C42 23.307501 41.130122 22.287658 40 22.050781L40 18.5 A 1.50015 1.50015 0 0 0 39.560547 17.439453L39.544922 17.423828L26.560547 4.4394531 A 1.50015 1.50015 0 0 0 25.5 4L12.5 4 z M 12.5 7L24 7L24 15.5C24 17.967501 26.032499 20 28.5 20L37 20L37 22L11 22L11 8.5C11 7.6535009 11.653501 7 12.5 7 z M 27 9.1210938L34.878906 17L28.5 17C27.653501 17 27 16.346499 27 15.5L27 9.1210938 z M 9 25L39 25L39 35L9 35L9 25 z M 16 26C15.448 26 15 26.448 15 27L15 33C15 33.552 15.448 34 16 34L19 34C19.552 34 20 33.552 20 33C20 32.448 19.552 32 19 32L17 32L17 27C17 26.448 16.552 26 16 26 z M 31.292969 26C29.477969 26 28 27.794 28 30C28 32.206 29.476016 34 31.291016 34C32.733016 34 33.605531 33.024266 33.894531 32.447266C33.963531 32.309266 34 32.155 34 32L34 31C34 30.448 33.552 30 33 30C32.448 30 32 30.448 32 31L32 31.691406C31.875 31.829406 31.648969 32 31.292969 32C30.604969 32 30 31.065 30 30C30 28.935 30.603016 28 31.291016 28C31.827016 28 32.070469 28.387266 32.105469 28.447266C32.352469 28.941266 32.952266 29.143531 33.447266 28.894531C33.941266 28.647531 34.141531 28.046734 33.894531 27.552734C33.605531 26.975734 32.734969 26 31.292969 26 z M 23.310547 26.005859C21.382547 26.097859 19.900859 27.964969 20.005859 30.167969C20.110859 32.370969 21.763406 34.088094 23.691406 33.996094C25.619406 33.905094 27.101094 32.036984 26.996094 29.833984C26.891094 27.630984 25.238547 25.913859 23.310547 26.005859 z M 23.40625 28.003906C24.21825 27.965906 24.947047 28.847688 24.998047 29.929688C25.050047 31.012688 24.407703 31.959047 23.595703 31.998047C22.783703 32.037047 22.055906 31.155266 22.003906 30.072266C21.951906 28.989266 22.59425 28.042906 23.40625 28.003906 z M 11 38L37 38L37 39.5C37 40.346499 36.346499 41 35.5 41L12.5 41C11.653501 41 11 40.346499 11 39.5L11 38 z"/></svg>