<svg xmlns="http://www.w3.org/2000/svg" xmlns:xlink="http://www.w3.org/1999/xlink" viewBox="0 0 48 48"><path d="M20.476562 3.9785156 A 1.50015 1.50015 0 0 0 20.257812 4L12.5 4C10.02 4 8 6.02 8 8.5L8 39.5C8 41.98 10.02 44 12.5 44L24.099609 44C24.029609 43.68 24 43.34 24 43L24 41L12.5 41C11.67 41 11 40.33 11 39.5L11 8.5C11 7.67 11.67 7 12.5 7L19 7L19 7.5 A 1.50015 1.50015 0 0 0 20.5 9L27.5 9 A 1.50015 1.50015 0 0 0 29 7.5L29 7L35.5 7C36.33 7 37 7.67 37 8.5L37 24L39.279297 24C39.519297 24 39.76 24.020312 40 24.070312L40 8.5C40 6.02 37.98 4 35.5 4L27.746094 4 A 1.50015 1.50015 0 0 0 27.259766 4L20.746094 4 A 1.50015 1.50015 0 0 0 20.476562 3.9785156 z M 20.5 11 A 1.50015 1.50015 0 1 0 20.5 14L27.5 14 A 1.50015 1.50015 0 1 0 27.5 11L20.5 11 z M 20.5 16C19.89 16 19.329375 16.369453 19.109375 16.939453C19.019375 17.159453 17 22.25 17 26C17 29.86 20.14 33 24 33L24 30C21.79 30 20 28.21 20 26C20 23.69 20.999062 20.55 21.539062 19L26.460938 19C26.860937 20.16 27.529844 22.210625 27.839844 24.140625C28.209844 24.050625 28.6 24 29 24L30.839844 24C30.369844 20.66 28.960625 17.119453 28.890625 16.939453C28.670625 16.369453 28.11 16 27.5 16L20.5 16 z M 24 24C22.9 24 22 24.9 22 26C22 27.1 22.9 28 24 28L24.099609 28L24.099609 27.990234C24.329609 26.860234 24.950547 25.860391 25.810547 25.150391C25.490547 24.470391 24.8 24 24 24 z M 29 26C27.343 26 26 27.341047 26 28.998047L26 42.998047C26 44.655047 27.343 45.998047 29 45.998047L29 39.998047C29 38.895047 29.897 37.998047 31 37.998047L41 37.998047C42.103 37.998047 43 38.895047 43 39.998047L43 45.998047C44.657 45.998047 46 44.655047 46 42.998047L46 31.9375C46 31.3435 45.735297 30.780391 45.279297 30.400391L40.556641 26.462891C40.197641 26.162891 39.742391 26 39.275391 26L39 26L39 29.998047C39 31.101047 38.103 32 37 32L32 32C30.897 32 30 31.101047 30 29.998047L30 26L29 26 z M 32 26L32 30L37 30L37 26L32 26 z M 31 40L31 46L41 46L41 40L31 40 z"/></svg>