<svg xmlns="http://www.w3.org/2000/svg" xmlns:xlink="http://www.w3.org/1999/xlink" viewBox="0 0 48 48"><path d="M23.978516 6 A 1.50015 1.50015 0 0 0 22.939453 6.4394531L16.939453 12.439453 A 1.50015 1.50015 0 1 0 19.060547 14.560547L22.5 11.121094L22.5 32.5 A 1.50015 1.50015 0 1 0 25.5 32.5L25.5 11.121094L28.939453 14.560547 A 1.50015 1.50015 0 1 0 31.060547 12.439453L25.060547 6.4394531 A 1.50015 1.50015 0 0 0 23.978516 6 z M 11.5 17C8.4802259 17 6 19.480226 6 22.5L6 36.5C6 39.519774 8.4802259 42 11.5 42L36.5 42C39.519774 42 42 39.519774 42 36.5L42 22.5C42 19.480226 39.519774 17 36.5 17L34.5 17 A 1.50015 1.50015 0 1 0 34.5 20L36.5 20C37.898226 20 39 21.101774 39 22.5L39 36.5C39 37.898226 37.898226 39 36.5 39L11.5 39C10.101774 39 9 37.898226 9 36.5L9 22.5C9 21.101774 10.101774 20 11.5 20L13.5 20 A 1.50015 1.50015 0 1 0 13.5 17L11.5 17 z"/></svg>